<svg width="779" height="455" viewBox="0 0 779 455" fill="none" xmlns="http://www.w3.org/2000/svg">
<path d="M386.242 410.416C577.407 410.416 732.377 329.241 732.377 229.107C732.377 128.972 577.407 47.7976 386.242 47.7976C195.076 47.7976 40.1058 128.972 40.1058 229.107C40.1058 329.241 195.076 410.416 386.242 410.416Z" fill="#491404"/>
<path d="M722.065 276.659C752.965 276.659 778.015 256.067 778.015 230.665C778.015 205.264 752.965 184.672 722.065 184.672C691.164 184.672 666.114 205.264 666.114 230.665C666.114 256.067 691.164 276.659 722.065 276.659Z" fill="#491404"/>
<path d="M725.966 261.537C747.964 261.537 765.796 246.879 765.796 228.796C765.796 210.714 747.964 196.055 725.966 196.055C703.969 196.055 686.137 210.714 686.137 228.796C686.137 246.879 703.969 261.537 725.966 261.537Z" fill="#FBC36A"/>
<path d="M56.1238 273.988C87.0245 273.988 112.074 253.396 112.074 227.994C112.074 202.593 87.0245 182.001 56.1238 182.001C25.2231 182.001 0.173096 202.593 0.173096 227.994C0.173096 253.396 25.2231 273.988 56.1238 273.988Z" fill="#491404"/>
<path d="M53.2479 259.516C75.245 259.516 93.0772 244.857 93.0772 226.775C93.0772 208.692 75.245 194.034 53.2479 194.034C31.2508 194.034 13.4186 208.692 13.4186 226.775C13.4186 244.857 31.2508 259.516 53.2479 259.516Z" fill="#FBC36A"/>
<path d="M99.1081 165.57V273.678L238.511 274.626L78.2452 286.006C78.2452 286.006 64.9687 155.138 99.1081 165.57Z" fill="#FBC36A"/>
<path d="M680.426 276.523L679.478 190.226H549.559L694.651 175.053C694.651 175.053 709.824 289.799 680.426 276.523Z" fill="#FBC36A"/>
<path d="M199.96 172.302V262H189.098V181.937H143.899V262H133.037V172.302H199.96ZM248.675 263.402C242.193 263.402 236.601 261.971 231.9 259.109C227.228 256.219 223.622 252.189 221.082 247.021C218.571 241.824 217.315 235.78 217.315 228.889C217.315 221.998 218.571 215.925 221.082 210.669C223.622 205.384 227.155 201.267 231.681 198.318C236.236 195.34 241.55 193.85 247.624 193.85C251.127 193.85 254.587 194.434 258.004 195.602C261.42 196.77 264.53 198.668 267.333 201.296C270.136 203.895 272.369 207.34 274.034 211.632C275.698 215.925 276.53 221.209 276.53 227.487V231.867H224.673V222.932H266.019C266.019 219.136 265.259 215.749 263.741 212.771C262.252 209.793 260.121 207.442 257.347 205.72C254.602 203.997 251.361 203.136 247.624 203.136C243.506 203.136 239.944 204.157 236.937 206.201C233.959 208.216 231.666 210.844 230.061 214.085C228.455 217.326 227.652 220.801 227.652 224.509V230.465C227.652 235.546 228.528 239.853 230.28 243.386C232.061 246.89 234.528 249.561 237.681 251.401C240.835 253.211 244.499 254.116 248.675 254.116C251.39 254.116 253.843 253.737 256.033 252.978C258.252 252.189 260.164 251.021 261.77 249.474C263.376 247.897 264.617 245.941 265.493 243.605L275.479 246.408C274.428 249.795 272.661 252.773 270.179 255.343C267.698 257.883 264.632 259.868 260.982 261.299C257.332 262.701 253.23 263.402 248.675 263.402ZM292.254 262V194.726H302.59V223.983H309.422L333.599 194.726H346.913L319.759 227.137L347.264 262H333.949L311.875 233.619H302.59V262H292.254ZM378.295 263.577C374.032 263.577 370.163 262.774 366.688 261.168C363.214 259.533 360.454 257.182 358.41 254.116C356.367 251.021 355.345 247.284 355.345 242.904C355.345 239.05 356.104 235.926 357.622 233.531C359.14 231.108 361.17 229.21 363.71 227.838C366.25 226.465 369.053 225.443 372.119 224.772C375.214 224.071 378.324 223.516 381.448 223.107C385.536 222.582 388.85 222.188 391.39 221.925C393.96 221.633 395.829 221.151 396.996 220.48C398.194 219.808 398.792 218.64 398.792 216.976V216.625C398.792 212.304 397.61 208.946 395.245 206.552C392.909 204.157 389.361 202.96 384.602 202.96C379.667 202.96 375.798 204.041 372.995 206.201C370.192 208.362 368.221 210.669 367.082 213.121L357.272 209.618C359.024 205.53 361.36 202.347 364.279 200.07C367.228 197.763 370.44 196.157 373.915 195.252C377.419 194.318 380.864 193.85 384.251 193.85C386.412 193.85 388.894 194.113 391.697 194.639C394.529 195.135 397.259 196.172 399.887 197.748C402.544 199.325 404.749 201.705 406.501 204.887C408.253 208.07 409.128 212.333 409.128 217.676V262H398.792V252.89H398.267C397.566 254.35 396.398 255.912 394.763 257.576C393.128 259.241 390.952 260.657 388.237 261.825C385.521 262.993 382.207 263.577 378.295 263.577ZM379.871 254.292C383.959 254.292 387.405 253.489 390.208 251.883C393.04 250.277 395.172 248.204 396.602 245.663C398.062 243.123 398.792 240.451 398.792 237.648V228.188C398.354 228.714 397.391 229.195 395.902 229.633C394.442 230.042 392.748 230.407 390.821 230.728C388.923 231.02 387.069 231.283 385.259 231.517C383.477 231.721 382.032 231.896 380.923 232.042C378.236 232.393 375.725 232.962 373.389 233.75C371.083 234.509 369.214 235.663 367.783 237.21C366.382 238.729 365.681 240.802 365.681 243.43C365.681 247.021 367.009 249.737 369.667 251.576C372.353 253.386 375.754 254.292 379.871 254.292ZM427.994 287.228V194.726H437.98V205.413H439.207C439.966 204.245 441.017 202.756 442.36 200.946C443.733 199.106 445.689 197.471 448.229 196.04C450.799 194.58 454.273 193.85 458.653 193.85C464.318 193.85 469.311 195.267 473.632 198.099C477.953 200.931 481.326 204.946 483.749 210.143C486.173 215.341 487.384 221.472 487.384 228.538C487.384 235.663 486.173 241.838 483.749 247.065C481.326 252.262 477.968 256.292 473.676 259.153C469.384 261.985 464.434 263.402 458.828 263.402C454.507 263.402 451.047 262.686 448.448 261.255C445.849 259.796 443.849 258.146 442.448 256.306C441.046 254.438 439.966 252.89 439.207 251.664H438.331V287.228H427.994ZM438.156 228.363C438.156 233.444 438.9 237.926 440.389 241.809C441.878 245.663 444.054 248.685 446.915 250.875C449.777 253.036 453.28 254.116 457.427 254.116C461.748 254.116 465.354 252.978 468.245 250.7C471.165 248.393 473.355 245.298 474.814 241.415C476.304 237.502 477.048 233.152 477.048 228.363C477.048 223.633 476.318 219.37 474.858 215.574C473.428 211.749 471.252 208.727 468.332 206.508C465.442 204.26 461.806 203.136 457.427 203.136C453.222 203.136 449.689 204.201 446.828 206.333C443.966 208.435 441.805 211.384 440.345 215.18C438.886 218.947 438.156 223.341 438.156 228.363ZM548.176 223.633V233.269H511.035V223.633H548.176ZM513.488 194.726V262H503.152V194.726H513.488ZM556.06 194.726V262H545.723V194.726H556.06ZM615.406 262V204.187H597.536C593.507 204.187 590.339 205.121 588.032 206.99C585.726 208.858 584.572 211.428 584.572 214.698C584.572 217.91 585.609 220.436 587.682 222.275C589.784 224.115 592.66 225.035 596.31 225.035H618.034V234.67H596.31C591.755 234.67 587.828 233.867 584.528 232.261C581.229 230.655 578.689 228.363 576.908 225.385C575.126 222.377 574.236 218.815 574.236 214.698C574.236 210.552 575.17 206.99 577.039 204.011C578.908 201.033 581.579 198.741 585.054 197.135C588.558 195.529 592.719 194.726 597.536 194.726H625.217V262H615.406ZM570.557 262L589.653 228.538H600.865L581.769 262H570.557Z" fill="#FBC36A"/>
<path d="M129.339 144.271L125.827 149.185L131.541 151.144L155.209 159.257L158.059 160.234L160.048 157.97C185.122 129.437 265.027 69.7091 382.861 60.7729C387.871 75.549 406.094 98.098 447.496 101.076L454.331 101.567L452.066 95.0999C450.068 89.3946 445.725 80.6197 439.062 72.2861C435.769 68.1681 431.85 64.0839 427.298 60.5229H437.366C441.42 74.8451 458.376 95.0916 499.424 94.5966L507.336 94.5012L503.21 87.7502C500.339 83.0531 495.624 75.8969 490.766 69.6424C489.824 68.4305 488.867 67.2388 487.907 66.0958L493.767 66.6741C497.665 80.5841 512.132 102.584 545.63 103.358L552.303 103.512L549.943 97.2676C548.356 93.0707 545.487 86.6304 541.965 80.807C541.705 80.3778 541.441 79.9497 541.171 79.5239L549.965 81.7509C551.401 88.0623 554.588 96.2931 560.179 103.69C566.767 112.406 576.812 120.092 591.236 121.824L596.777 122.49L596.253 116.934C595.954 113.757 595.064 108.678 593.355 103.403C592.955 102.168 592.502 100.897 591.991 99.6196C600.127 103.801 614.572 112.406 640.455 130.154L646.17 123.249C639.54 116.667 628.65 106.604 617.449 97.7327C611.849 93.2977 606.109 89.1103 600.74 85.7955C598.828 84.6146 596.917 83.5158 595.041 82.5464L613.126 72.2666L620.341 68.1655L612.967 64.3564C607.519 61.5419 598.391 58.1782 588.297 57.0048C578.224 55.8339 566.632 56.7878 556.853 63.3132L556.462 63.574C555.962 63.4835 555.305 63.3428 554.462 63.1234C550.845 62.1818 544.939 60.1087 535.732 56.1365C537.842 55.2263 540.031 54.1446 542.224 52.8761C549.253 48.8098 556.581 42.6734 561.364 33.8239L564.188 28.599L558.394 27.2942C551.404 25.7199 540.213 24.7767 528.919 26.9838C518.432 29.0333 507.423 33.9016 499.898 43.962L491.636 42.5407C497.31 37.5823 504.778 30.5437 512.122 22.3577L517.745 16.0899L509.409 14.898C500.349 13.6025 486.263 13.0815 473.28 15.8C467.091 17.0959 460.803 19.2113 455.43 22.5631C457.199 20.8934 458.81 19.3309 460.144 17.9729C461.185 16.9132 462.109 15.9251 462.823 15.0783C463.178 14.6573 463.527 14.2157 463.826 13.7795C464.063 13.433 464.516 12.742 464.774 11.8826L466.196 7.13731L461.337 6.17613C451.832 4.29632 436.835 3.38693 422.413 6.78667C408.761 10.0048 395.059 17.2517 387.574 31.7634C357.08 32.3144 309.357 38.3201 261.297 54.6503C211.768 71.48 161.359 99.4556 129.339 144.271ZM444.022 34.6464L442.326 34.4658C443.611 33.3297 444.93 32.1566 446.252 30.9725C445.426 32.1211 444.679 33.3441 444.022 34.6464ZM456.439 8.63319C456.44 8.63281 456.432 8.64731 456.411 8.67783C456.428 8.64883 456.438 8.63356 456.439 8.63319Z" fill="#FBC36A" stroke="#491404" stroke-width="9"/>
<path d="M657.661 310.729L661.173 305.815L655.459 303.856L631.791 295.743L628.941 294.766L626.952 297.03C601.878 325.563 521.973 385.291 404.139 394.227C399.129 379.451 380.906 356.902 339.504 353.924L332.669 353.433L334.934 359.9C336.932 365.605 341.275 374.38 347.938 382.714C351.231 386.832 355.15 390.916 359.702 394.477L349.634 394.477C345.58 380.155 328.624 359.908 287.576 360.403L279.664 360.499L283.79 367.25C286.661 371.947 291.376 379.103 296.234 385.358C297.176 386.57 298.133 387.761 299.093 388.904L293.233 388.326C289.335 374.416 274.868 352.416 241.37 351.642L234.697 351.488L237.057 357.732C238.644 361.929 241.513 368.37 245.035 374.193C245.295 374.622 245.559 375.05 245.829 375.476L237.035 373.249C235.599 366.938 232.412 358.707 226.821 351.31C220.233 342.594 210.188 334.908 195.764 333.176L190.223 332.51L190.747 338.066C191.046 341.243 191.936 346.322 193.645 351.597C194.045 352.832 194.498 354.103 195.009 355.38C186.873 351.199 172.428 342.594 146.545 324.846L140.83 331.751C147.46 338.333 158.35 348.396 169.551 357.267C175.151 361.702 180.891 365.89 186.26 369.205C188.172 370.385 190.083 371.484 191.959 372.454L173.874 382.733L166.659 386.835L174.033 390.644C179.481 393.458 188.609 396.822 198.703 397.995C208.776 399.166 220.368 398.212 230.147 391.687L230.538 391.426C231.038 391.517 231.695 391.657 232.538 391.877C236.155 392.818 242.061 394.891 251.268 398.864C249.158 399.774 246.969 400.855 244.776 402.124C237.747 406.19 230.419 412.327 225.636 421.176L222.812 426.401L228.606 427.706C235.596 429.28 246.787 430.223 258.081 428.016C268.568 425.967 279.577 421.098 287.102 411.038L295.364 412.459C289.69 417.418 282.222 424.456 274.878 432.642L269.255 438.91L277.591 440.102C286.651 441.398 300.737 441.919 313.72 439.2C319.909 437.904 326.197 435.789 331.57 432.437C329.801 434.107 328.19 435.669 326.856 437.027C325.815 438.087 324.891 439.075 324.177 439.922C323.822 440.343 323.473 440.784 323.174 441.22C322.937 441.567 322.484 442.258 322.226 443.117L320.804 447.863L325.663 448.824C335.168 450.704 350.165 451.613 364.587 448.213C378.239 444.995 391.941 437.748 399.426 423.237C429.92 422.686 477.643 416.68 525.703 400.35C575.232 383.52 625.641 355.544 657.661 310.729ZM342.978 420.354L344.674 420.534C343.389 421.67 342.07 422.843 340.748 424.027C341.574 422.879 342.321 421.656 342.978 420.354ZM330.561 446.367C330.56 446.367 330.568 446.353 330.589 446.322C330.572 446.351 330.562 446.366 330.561 446.367Z" fill="#FBC36A" stroke="#491404" stroke-width="9"/>
</svg>
